<svg width="621.9249145507812px" height="66.4000015258789px" xmlns="http://www.w3.org/2000/svg" viewBox="-60.96245727539059 41.79999923706055 621.9249145507812 66.4000015258789" style="background: rgba(0, 0, 0, 0);" preserveAspectRatio="xMidYMid"><defs><filter id="editing-neon" x="-100%" y="-100%" width="300%" height="300%"><feFlood flood-color="#00ff2f" result="flood"></feFlood><feComposite operator="in" in="flood" in2="SourceAlpha" result="color"></feComposite><feFlood flood-color="#00ff2f" result="flood2"></feFlood><feComposite operator="in" in="flood2" in2="SourceAlpha" result="color2"></feComposite><feMorphology operator="dilate" radius="2" in="color" result="dilate"></feMorphology><feGaussianBlur stdDeviation="6" in="color" result="blur1"></feGaussianBlur><feGaussianBlur stdDeviation="2.5" in="color" result="blur2"></feGaussianBlur><feGaussianBlur stdDeviation="1" in="SourceAlpha" result="blur3"></feGaussianBlur><feGaussianBlur stdDeviation="6" in="dilate" result="blur4"></feGaussianBlur><feConvolveMatrix in="color2" result="conv" order="3,3" divisor="1" kernelMatrix="1 1 1  1 1 1  1 1 1"></feConvolveMatrix><feMerge><feMergeNode in="blur1"></feMergeNode><feMergeNode in="blur2"></feMergeNode><feMergeNode in="blur4"></feMergeNode><feMergeNode in="blur3"></feMergeNode><feMergeNode in="blur3"></feMergeNode><feMergeNode in="blur3"></feMergeNode><feMergeNode in="blur3"></feMergeNode><feMergeNode in="conv"></feMergeNode><feMergeNode in="SourceGraphic"></feMergeNode></feMerge></filter></defs><g filter="url(#editing-neon)"><g transform="translate(30.830869674682617, 89.87499618530273)"><path d="M25.50-4.25L4.25-4.25L4.25-8.50L0-8.50L0-12.75L8.50-12.75L8.50-8.50L21.25-8.50L21.25-17L4.25-17L4.25-21.25L0-21.25L0-29.75L4.25-29.75L4.25-34L25.50-34L25.50-29.75L29.75-29.75L29.75-25.50L21.25-25.50L21.25-29.75L8.50-29.75L8.50-21.25L25.50-21.25L25.50-17L29.75-17L29.75-8.50L25.50-8.50L25.50-4.25ZM55.25-4.25L46.75-4.25L46.75-17L42.50-17L42.50-21.25L38.25-21.25L38.25-34L46.75-34L46.75-21.25L55.25-21.25L55.25-34L63.75-34L63.75-21.25L59.50-21.25L59.50-17L55.25-17L55.25-4.25ZM93.50-4.25L72.25-4.25L72.25-8.50L68-8.50L68-12.75L76.50-12.75L76.50-8.50L89.25-8.50L89.25-17L72.25-17L72.25-21.25L68-21.25L68-29.75L72.25-29.75L72.25-34L93.50-34L93.50-29.75L97.75-29.75L97.75-25.50L89.25-25.50L89.25-29.75L76.50-29.75L76.50-21.25L93.50-21.25L93.50-17L97.75-17L97.75-8.50L93.50-8.50L93.50-4.25ZM123.25-4.25L114.75-4.25L114.75-29.75L106.25-29.75L106.25-34L131.75-34L131.75-29.75L123.25-29.75L123.25-4.25ZM165.75-4.25L136-4.25L136-34L165.75-34L165.75-29.75L144.50-29.75L144.50-21.25L161.50-21.25L161.50-17L144.50-17L144.50-8.50L165.75-8.50L165.75-4.25ZM178.50-4.25L170-4.25L170-34L178.50-34L178.50-29.75L182.75-29.75L182.75-25.50L187-25.50L187-29.75L191.25-29.75L191.25-34L199.75-34L199.75-4.25L191.25-4.25L191.25-21.25L187-21.25L187-12.75L182.75-12.75L182.75-21.25L178.50-21.25L178.50-4.25ZM263.50-4.25L242.25-4.25L242.25-8.50L238-8.50L238-29.75L242.25-29.75L242.25-34L263.50-34L263.50-29.75L267.75-29.75L267.75-8.50L263.50-8.50L263.50-4.25ZM246.50-29.75L246.50-8.50L259.25-8.50L259.25-29.75L246.50-29.75ZM280.50-4.25L272-4.25L272-34L280.50-34L280.50-29.75L284.75-29.75L284.75-25.50L289-25.50L289-21.25L293.25-21.25L293.25-34L301.75-34L301.75-4.25L293.25-4.25L293.25-12.75L289-12.75L289-17L284.75-17L284.75-21.25L280.50-21.25L280.50-4.25ZM335.75-4.25L310.25-4.25L310.25-34L318.75-34L318.75-8.50L335.75-8.50L335.75-4.25ZM369.75-4.25L344.25-4.25L344.25-8.50L352.75-8.50L352.75-29.75L344.25-29.75L344.25-34L369.75-34L369.75-29.75L361.25-29.75L361.25-8.50L369.75-8.50L369.75-4.25ZM382.50-4.25L374-4.25L374-34L382.50-34L382.50-29.75L386.75-29.75L386.75-25.50L391-25.50L391-21.25L395.25-21.25L395.25-34L403.75-34L403.75-4.25L395.25-4.25L395.25-12.75L391-12.75L391-17L386.75-17L386.75-21.25L382.50-21.25L382.50-4.25ZM437.75-4.25L408-4.25L408-34L437.75-34L437.75-29.75L416.50-29.75L416.50-21.25L433.50-21.25L433.50-17L416.50-17L416.50-8.50L437.75-8.50L437.75-4.25Z" fill="none" stroke="#e9ffd4" stroke-width="1"></path></g></g><style>text {
  font-size: 64px;
  font-family: Arial Black;
  dominant-baseline: central;
  text-anchor: middle;
}</style></svg>